<svg width="24" height="25" viewBox="0 0 24 25" fill="none" xmlns="http://www.w3.org/2000/svg">
<path d="M3 11.9221H21C21.2652 11.9221 21.5196 11.8168 21.7071 11.6292C21.8946 11.4417 22 11.1873 22 10.9221C22 10.6569 21.8946 10.4025 21.7071 10.215C21.5196 10.0275 21.2652 9.92212 21 9.92212H3C2.73478 9.92212 2.48043 10.0275 2.29289 10.215C2.10536 10.4025 2 10.6569 2 10.9221C2 11.1873 2.10536 11.4417 2.29289 11.6292C2.48043 11.8168 2.73478 11.9221 3 11.9221ZM21 13.9221H3C2.73478 13.9221 2.48043 14.0275 2.29289 14.215C2.10536 14.4025 2 14.6569 2 14.9221C2 15.1873 2.10536 15.4417 2.29289 15.6292C2.48043 15.8168 2.73478 15.9221 3 15.9221H21C21.2652 15.9221 21.5196 15.8168 21.7071 15.6292C21.8946 15.4417 22 15.1873 22 14.9221C22 14.6569 21.8946 14.4025 21.7071 14.215C21.5196 14.0275 21.2652 13.9221 21 13.9221Z" fill="#F4FBF7"/>
</svg>
