<svg width="24" height="25" viewBox="0 0 24 25" fill="none" xmlns="http://www.w3.org/2000/svg">
<path d="M13.4099 12.9221L17.7099 8.63206C17.8982 8.44376 18.004 8.18836 18.004 7.92206C18.004 7.65576 17.8982 7.40036 17.7099 7.21206C17.5216 7.02376 17.2662 6.91797 16.9999 6.91797C16.7336 6.91797 16.4782 7.02376 16.2899 7.21206L11.9999 11.5121L7.70994 7.21206C7.52164 7.02376 7.26624 6.91797 6.99994 6.91797C6.73364 6.91797 6.47824 7.02376 6.28994 7.21206C6.10164 7.40036 5.99585 7.65576 5.99585 7.92206C5.99585 8.18836 6.10164 8.44376 6.28994 8.63206L10.5899 12.9221L6.28994 17.2121C6.19621 17.305 6.12182 17.4156 6.07105 17.5375C6.02028 17.6593 5.99414 17.79 5.99414 17.9221C5.99414 18.0541 6.02028 18.1848 6.07105 18.3066C6.12182 18.4285 6.19621 18.5391 6.28994 18.6321C6.3829 18.7258 6.4935 18.8002 6.61536 18.851C6.73722 18.9017 6.86793 18.9279 6.99994 18.9279C7.13195 18.9279 7.26266 18.9017 7.38452 18.851C7.50638 18.8002 7.61698 18.7258 7.70994 18.6321L11.9999 14.3321L16.2899 18.6321C16.3829 18.7258 16.4935 18.8002 16.6154 18.851C16.7372 18.9017 16.8679 18.9279 16.9999 18.9279C17.132 18.9279 17.2627 18.9017 17.3845 18.851C17.5064 18.8002 17.617 18.7258 17.7099 18.6321C17.8037 18.5391 17.8781 18.4285 17.9288 18.3066C17.9796 18.1848 18.0057 18.0541 18.0057 17.9221C18.0057 17.79 17.9796 17.6593 17.9288 17.5375C17.8781 17.4156 17.8037 17.305 17.7099 17.2121L13.4099 12.9221Z" fill="#F4FBF7"/>
</svg>
