<svg aria-hidden="true" style="position: absolute; width: 0; height: 0; overflow: hidden;" version="1.1" xmlns="http://www.w3.org/2000/svg" xmlns:xlink="http://www.w3.org/1999/xlink">
<defs>
<symbol id="icon-burger" viewBox="0 0 31 32">
<path fill="#f4fbf7" style="fill: var(--color1, #f4fbf7)" d="M3.84 15.26h23.040c0.339 0 0.665-0.135 0.905-0.375s0.375-0.566 0.375-0.905-0.135-0.665-0.375-0.905c-0.24-0.24-0.566-0.375-0.905-0.375h-23.040c-0.339 0-0.665 0.135-0.905 0.375s-0.375 0.566-0.375 0.905c0 0.339 0.135 0.665 0.375 0.905s0.566 0.375 0.905 0.375zM26.88 17.82h-23.040c-0.339 0-0.665 0.135-0.905 0.375s-0.375 0.566-0.375 0.905c0 0.339 0.135 0.665 0.375 0.905s0.566 0.375 0.905 0.375h23.040c0.339 0 0.665-0.135 0.905-0.375s0.375-0.566 0.375-0.905-0.135-0.665-0.375-0.905c-0.24-0.24-0.566-0.375-0.905-0.375z"></path>
</symbol>
<symbol id="icon-close" viewBox="0 0 31 32">
<path fill="#f4fbf7" style="fill: var(--color1, #f4fbf7)" d="M17.165 16.54l5.504-5.491c0.241-0.241 0.376-0.568 0.376-0.909s-0.135-0.668-0.376-0.909c-0.241-0.241-0.568-0.376-0.909-0.376s-0.668 0.135-0.909 0.376l-5.491 5.504-5.491-5.504c-0.241-0.241-0.568-0.376-0.909-0.376s-0.668 0.135-0.909 0.376c-0.241 0.241-0.376 0.568-0.376 0.909s0.135 0.668 0.376 0.909l5.504 5.491-5.504 5.491c-0.12 0.119-0.215 0.26-0.28 0.416s-0.098 0.323-0.098 0.492c0 0.169 0.033 0.336 0.098 0.492s0.16 0.298 0.28 0.417c0.119 0.12 0.261 0.215 0.417 0.28s0.323 0.098 0.492 0.098 0.336-0.034 0.492-0.098c0.156-0.065 0.298-0.16 0.417-0.28l5.491-5.504 5.491 5.504c0.119 0.12 0.261 0.215 0.417 0.28s0.323 0.098 0.492 0.098c0.169 0 0.336-0.034 0.492-0.098s0.298-0.16 0.416-0.28c0.12-0.119 0.215-0.261 0.28-0.417s0.098-0.323 0.098-0.492c0-0.169-0.033-0.336-0.098-0.492s-0.16-0.298-0.28-0.416l-5.504-5.491z"></path>
</symbol>
<symbol id="icon-logo" viewBox="0 0 59 32">
<path fill="#2fdf84" style="fill: var(--color2, #2fdf84)" d="M12.218 18.25c0.091 0 0.152 0 0.244 0.031h4.662c0.091 0 0.152 0 0.244-0.031 0.152-0.030 0.335-0.061 0.488-0.122 0.792-0.335 1.219-1.249 1.066-2.041-0.152-0.67-0.67-1.219-1.31-1.401-0.091-0.031-0.152-0.031-0.244-0.061-0.091 0-0.152 0-0.244-0.031h-4.662c-0.213 0-0.274 0-0.488 0.061-0.152 0.031-0.305 0.122-0.457 0.213-0.64 0.396-1.005 1.188-0.853 1.92 0.152 0.762 0.823 1.341 1.554 1.462z"></path>
<path fill="#2fdf84" style="fill: var(--color2, #2fdf84)" d="M1.584 3.625c0.061 0.030 0.152 0.030 0.244 0.030h4.662c0.091 0 0.152 0 0.244-0.030 0.152-0.030 0.335-0.061 0.487-0.122 0.792-0.335 1.219-1.249 1.066-2.041-0.152-0.67-0.67-1.219-1.31-1.402-0.091-0.030-0.152-0.030-0.244-0.061-0.091 0-0.152 0-0.244-0.030h-4.662c-0.213 0.030-0.274 0.030-0.487 0.091-0.152 0.030-0.305 0.122-0.457 0.213-0.67 0.396-1.005 1.188-0.853 1.919 0.152 0.762 0.792 1.341 1.554 1.432z"></path>
<path fill="#2fdf84" style="fill: var(--color2, #2fdf84)" d="M5.667 14.685c-0.091-0.031-0.152-0.031-0.244-0.061-0.091 0-0.152 0-0.244-0.031h-2.529c-0.213 0-0.274 0-0.487 0.061-0.152 0.031-0.305 0.122-0.457 0.213-0.64 0.396-1.005 1.188-0.853 1.919s0.792 1.341 1.554 1.432c0.091 0 0.152 0 0.244 0.030h2.529c0.091 0 0.152 0 0.244-0.030 0.152-0.031 0.335-0.061 0.487-0.122 0.792-0.335 1.219-1.249 1.066-2.041-0.152-0.64-0.67-1.188-1.31-1.371z"></path>
<path fill="#2fdf84" style="fill: var(--color2, #2fdf84)" d="M14.777 28.213c-0.091-0.031-0.152-0.031-0.244-0.061-0.091 0-0.152 0-0.244-0.031h-2.529c-0.213 0-0.274 0-0.487 0.061-0.152 0.031-0.305 0.122-0.457 0.213-0.64 0.396-1.005 1.188-0.853 1.919s0.792 1.341 1.554 1.432c0.091 0 0.152 0 0.244 0.030h2.529c0.091 0 0.152 0 0.244-0.030 0.152-0.031 0.335-0.061 0.487-0.122 0.792-0.335 1.219-1.249 1.066-2.041-0.152-0.64-0.67-1.188-1.31-1.371z"></path>
<path fill="#00b871" style="fill: var(--color3, #00b871)" d="M59.077 8.623v-0.030c0-0.030 0-0.091 0-0.122-0.031-0.274-0.183-0.548-0.366-0.762-0.091-0.122-0.152-0.152-0.244-0.213-0.031 0-0.031-0.030-0.061-0.030 0 0-0.031 0-0.031-0.030l-12.553-7.251c-0.061-0.030-0.122-0.061-0.183-0.091-0.183-0.061-0.213-0.061-0.426-0.091-0.061 0-0.122 0-0.183 0-0.030 0-0.030 0-0.061 0h-30.681c-0.213 0-0.274 0-0.488 0.061-0.152 0.030-0.305 0.122-0.457 0.213-0.64 0.396-1.005 1.188-0.853 1.919s0.792 1.341 1.554 1.432c0.091 0 0.152 0 0.244 0.030h8.47c0.091 0 0.213 0.030 0.305 0.030 0.061 0 0.122 0.030 0.183 0.030 0.64 0.183 1.158 0.731 1.31 1.402 0.183 0.792-0.274 1.706-1.066 2.041-0.152 0.061-0.305 0.122-0.488 0.122-0.091 0-0.152 0-0.244 0.030h-20.931c-0.213 0-0.274 0-0.487 0.061-0.152 0.030-0.305 0.122-0.457 0.213-0.64 0.396-1.005 1.188-0.853 1.919s0.792 1.341 1.554 1.432c0.091 0 0.152 0 0.244 0.030h25.227c0.091 0 0.213 0.030 0.305 0.030 0.061 0 0.122 0.030 0.183 0.030 0.64 0.183 1.158 0.731 1.31 1.402 0.183 0.792-0.274 1.706-1.066 2.041-0.152 0.061-0.305 0.122-0.488 0.122-0.091 0-0.152 0-0.244 0.030h-3.778c-0.213 0-0.274 0-0.487 0.061-0.152 0.030-0.305 0.122-0.457 0.213-0.64 0.396-1.005 1.188-0.853 1.919s0.792 1.341 1.554 1.432c0.091 0 0.152 0 0.244 0.031h9.232c0.823 0 1.463-0.67 1.463-1.463v-5.18c0-0.213 0.244-0.335 0.426-0.244l6.459 3.748c1.737 1.005 2.803 2.864 2.803 4.875v3.26c0 2.072-2.255 3.382-4.052 2.346l-5.301-3.077c-0.183-0.091-0.305-0.274-0.366-0.488-0.122-0.67-0.731-1.158-1.432-1.158h-23.095c-0.213 0-0.274 0-0.487 0.061-0.152 0.030-0.305 0.122-0.457 0.213-0.64 0.396-1.005 1.188-0.853 1.919s0.792 1.341 1.554 1.432c0.091 0 0.152 0 0.244 0.031h15.6c0.091 0 0.213 0.030 0.305 0.030 0.061 0 0.122 0.031 0.183 0.031 0.64 0.183 1.158 0.731 1.31 1.401 0.183 0.792-0.274 1.706-1.066 2.041-0.152 0.061-0.305 0.122-0.488 0.122-0.091 0-0.152 0-0.244 0.031h-4.601c-0.213 0-0.274 0-0.488 0.061-0.152 0.031-0.305 0.122-0.457 0.213-0.64 0.396-1.006 1.188-0.853 1.919s0.792 1.341 1.554 1.432c0.091 0 0.152 0 0.244 0.031h24.648c0.030 0 0.030 0 0.061 0s0.061 0 0.091 0c0.030 0 0.061 0 0.122 0 0.091-0.031 0.213-0.031 0.305-0.091 0.031 0 0.061-0.030 0.091-0.061 0.122-0.061 0.213-0.122 0.305-0.183l12.339-7.16c0.061-0.031 0.122-0.061 0.183-0.122 0.213-0.183 0.396-0.426 0.487-0.701 0.061-0.183 0.061-0.244 0.061-0.427v-14.472c-0.031 0-0.031 0-0.031-0.030zM45.61 3.352l8.836 5.088c0.152 0.091 0.152 0.335 0 0.427l-1.737 1.005c-0.305 0.183-0.67 0.183-0.944 0l-8.805-5.088c-0.183-0.122-0.183-0.366 0-0.487l1.676-0.975c0.305-0.152 0.67-0.152 0.975 0.030zM44.635 13.986l-8.805-5.088c-0.183-0.122-0.183-0.366 0-0.487l1.676-0.975c0.305-0.183 0.67-0.183 0.975 0l8.836 5.088c0.152 0.091 0.152 0.335 0 0.427l-1.737 1.005c-0.274 0.183-0.64 0.183-0.944 0.031zM56.243 21.938c0 0.244-0.122 0.457-0.335 0.579l-8.379 4.844c-0.426 0.244-0.975-0.061-0.975-0.579v-9.689c0-0.244 0.122-0.457 0.335-0.579l2.255-1.31c0 1.676 0 4.083 0 5.271 0 0.335 0.366 0.548 0.64 0.366l3.504-2.011c0.213-0.122 0.366-0.366 0.366-0.609v-5.606l1.615-0.914c0.427-0.244 0.975 0.061 0.975 0.579v9.658z"></path>
</symbol>
</defs>
</svg>
